FFmpeg version SVN-r25716, Copyright (c) 2000-2010 the FFmpeg developers  built on Nov 10 2010 12:23:18 with gcc 4.1.2 20080704 (Red Hat 4.1.2-48)  configuration: --enable-libmp3lame --enable-shared --disable-mmx --arch=x86_64  libavutil     50.33. 0 / 50.33. 0  libavcore      0.12. 1 /  0.12. 1  libavcodec    52.94. 4 / 52.94. 4  libavformat   52.84. 0 / 52.84. 0  libavdevice   52. 2. 2 / 52. 2. 2  libavfilter    1.59. 0 /  1.59. 0  libswscale     0.12. 0 /  0.12. 0Input #0, avi, from '/RAID10/data/converted_video_files/47380.avi':  Duration: 00:00:08.45, start: 0.000000, bitrate: 20977 kb/s    Stream #0.0: Video: msvideo1, rgb555le, 1024x1024, 20 tbr, 20 tbn, 20 tbc[buffer @ 0x1212a520] w:1024 h:1024 pixfmt:rgb555le[ffsink @ 0x12129b40] auto-inserting filter 'auto-inserted scaler 0' between the filter 'src' and the filter 'out'[scale @ 0x12128a70] w:1024 h:1024 fmt:rgb555le -> w:1024 h:1024 fmt:yuv420p flags:0x4Output #0, flv, to '/RAID10/data/converted_video_files/47380.flv':  Metadata:    encoder         : Lavf52.84.0    Stream #0.0: Video: flv, yuv420p, 1024x1024, q=2-31, 600 kb/s, 1k tbn, 24 tbcStream mapping:  Stream #0.0 -> #0.0Press [q] to stop encodingframe=    7 fps=  0 q=5.0 size=     479kB time=0.33 bitrate=11749.2kbits/s    frame=   16 fps= 14 q=30.5 size=     544kB time=0.79 bitrate=5627.4kbits/s    frame=   26 fps= 15 q=31.0 size=     578kB time=1.29 bitrate=3669.1kbits/s    frame=   36 fps= 16 q=31.0 size=     613kB time=1.79 bitrate=2801.5kbits/s    frame=   46 fps= 17 q=31.0 size=     648kB time=2.29 bitrate=2316.9kbits/s    frame=   55 fps= 17 q=31.0 size=     682kB time=2.75 bitrate=2031.4kbits/s    frame=   66 fps= 18 q=24.8 size=     718kB time=3.29 bitrate=1786.5kbits/s    frame=   76 fps= 18 q=31.0 size=     726kB time=3.79 bitrate=1569.1kbits/s    frame=   86 fps= 18 q=31.0 size=     765kB time=4.29 bitrate=1461.0kbits/s    frame=   96 fps= 18 q=31.0 size=     803kB time=4.79 bitrate=1373.5kbits/s    frame=  106 fps= 18 q=31.0 size=     839kB time=5.29 bitrate=1298.4kbits/s    frame=  117 fps= 18 q=31.0 size=     874kB time=5.83 bitrate=1227.1kbits/s    frame=  128 fps= 19 q=31.0 size=     909kB time=6.37 bitrate=1168.6kbits/s    frame=  139 fps= 19 q=31.0 size=     944kB time=6.96 bitrate=1111.4kbits/s    frame=  147 fps= 19 q=31.0 size=     952kB time=7.33 bitrate=1063.2kbits/s    frame=  158 fps= 19 q=31.0 size=     987kB time=7.87 bitrate=1026.6kbits/s    frame=  169 fps= 19 q=31.0 size=    1022kB time=8.46 bitrate= 989.4kbits/s    frame=  169 fps= 19 q=31.0 Lsize=    1022kB time=8.46 bitrate= 989.4kbits/s    video:1019kB audio:0kB global headers:0kB muxing overhead 0.279332%